<svg width="28" height="28" viewBox="0 0 28 28" fill="none" xmlns="http://www.w3.org/2000/svg">
<path d="M12.601 21H15.401V12.6H12.601V21ZM14.001 9.8C14.3976 9.8 14.7301 9.66583 14.9985 9.3975C15.2668 9.12917 15.401 8.79667 15.401 8.4C15.401 8.00333 15.2668 7.67083 14.9985 7.4025C14.7301 7.13417 14.3976 7 14.001 7C13.6043 7 13.2718 7.13417 13.0035 7.4025C12.7351 7.67083 12.601 8.00333 12.601 8.4C12.601 8.79667 12.7351 9.12917 13.0035 9.3975C13.2718 9.66583 13.6043 9.8 14.001 9.8ZM14.001 28C12.0643 28 10.2443 27.6325 8.54098 26.8975C6.83764 26.1625 5.35598 25.165 4.09598 23.905C2.83598 22.645 1.83848 21.1633 1.10348 19.46C0.368477 17.7567 0.000976562 15.9367 0.000976562 14C0.000976562 12.0633 0.368477 10.2433 1.10348 8.54C1.83848 6.83667 2.83598 5.355 4.09598 4.095C5.35598 2.835 6.83764 1.8375 8.54098 1.1025C10.2443 0.3675 12.0643 0 14.001 0C15.9376 0 17.7576 0.3675 19.461 1.1025C21.1643 1.8375 22.646 2.835 23.906 4.095C25.166 5.355 26.1635 6.83667 26.8985 8.54C27.6335 10.2433 28.001 12.0633 28.001 14C28.001 15.9367 27.6335 17.7567 26.8985 19.46C26.1635 21.1633 25.166 22.645 23.906 23.905C22.646 25.165 21.1643 26.1625 19.461 26.8975C17.7576 27.6325 15.9376 28 14.001 28ZM14.001 25.2C17.1276 25.2 19.776 24.115 21.946 21.945C24.116 19.775 25.201 17.1267 25.201 14C25.201 10.8733 24.116 8.225 21.946 6.055C19.776 3.885 17.1276 2.8 14.001 2.8C10.8743 2.8 8.22598 3.885 6.05598 6.055C3.88598 8.225 2.80098 10.8733 2.80098 14C2.80098 17.1267 3.88598 19.775 6.05598 21.945C8.22598 24.115 10.8743 25.2 14.001 25.2Z" fill="#FFAD0F"/>
</svg>
