<svg width="18" height="18" viewBox="0 0 18 18" fill="none" xmlns="http://www.w3.org/2000/svg">
<g opacity="0.3">
<path d="M8.77519 13.7443C8.56881 13.7443 8.39494 13.675 8.25356 13.5365C8.11056 13.3996 8.03906 13.2311 8.03906 13.0312V4.5808C8.03906 4.39349 8.11056 4.23057 8.25356 4.09205C8.39494 3.95354 8.56881 3.88428 8.77519 3.88428C8.98156 3.88428 9.15544 3.95354 9.29681 4.09205C9.43981 4.23057 9.51131 4.39349 9.51131 4.5808V13.0312C9.51131 13.2311 9.43981 13.3996 9.29681 13.5365C9.15544 13.675 8.98156 13.7443 8.77519 13.7443Z" fill="#50CD89"/>
</g>
<path d="M13.1108 9.49433C13.0085 9.49433 12.9142 9.47544 12.8281 9.43766C12.742 9.39831 12.6648 9.34558 12.5965 9.27946L8.77453 5.59377L4.95253 9.29599C4.88428 9.37312 4.80141 9.43372 4.70391 9.4778C4.60641 9.52187 4.50078 9.54391 4.38703 9.54391C4.19203 9.54391 4.02384 9.47544 3.88247 9.33849C3.73947 9.19997 3.66797 9.03076 3.66797 8.83085C3.66797 8.72067 3.69072 8.61835 3.73622 8.52391C3.78172 8.42946 3.84428 8.3547 3.92391 8.2996L8.26022 4.08266C8.32847 4.01655 8.40566 3.96382 8.49178 3.92446C8.57791 3.88669 8.67216 3.8678 8.77453 3.8678C8.87691 3.8678 8.97116 3.88669 9.05728 3.92446C9.14341 3.96382 9.22059 4.01655 9.28884 4.08266L13.6252 8.2996C13.6934 8.3547 13.7478 8.4271 13.7885 8.51683C13.8275 8.60497 13.847 8.69863 13.847 8.7978C13.847 8.88595 13.8275 8.97488 13.7885 9.0646C13.7478 9.15275 13.6934 9.22988 13.6252 9.29599C13.5683 9.35109 13.4935 9.39831 13.4009 9.43766C13.3099 9.47544 13.2189 9.49433 13.1279 9.49433C13.1279 9.49433 13.1247 9.49433 13.1182 9.49433C13.1133 9.49433 13.1108 9.49433 13.1108 9.49433Z" fill="#50CD89"/>
</svg>
