<svg width="19" height="18" viewBox="0 0 19 18" fill="none" xmlns="http://www.w3.org/2000/svg">
<g opacity="0.3">
<path d="M9.27519 13.7443C9.06881 13.7443 8.89494 13.675 8.75356 13.5365C8.61056 13.3996 8.53906 13.2311 8.53906 13.0312V4.5808C8.53906 4.39349 8.61056 4.23057 8.75356 4.09205C8.89494 3.95354 9.06881 3.88428 9.27519 3.88428C9.48156 3.88428 9.65544 3.95354 9.79681 4.09205C9.93981 4.23057 10.0113 4.39349 10.0113 4.5808V13.0312C10.0113 13.2311 9.93981 13.3996 9.79681 13.5365C9.65544 13.675 9.48156 13.7443 9.27519 13.7443Z" fill="#F1416C"/>
</g>
<path d="M9.27453 13.7443C9.17216 13.7443 9.07466 13.7254 8.98203 13.6877C8.89103 13.6483 8.81709 13.5956 8.76022 13.5295L4.42391 9.296C4.34428 9.22989 4.28172 9.14961 4.23622 9.05517C4.19072 8.96072 4.16797 8.85841 4.16797 8.74822C4.16797 8.55934 4.23947 8.39642 4.38247 8.25947C4.52384 8.12096 4.69203 8.0517 4.88703 8.0517C5.00078 8.0517 5.10641 8.07373 5.20391 8.11781C5.30141 8.16188 5.38428 8.22248 5.45253 8.29961L9.27453 12.0018L13.0965 8.29961C13.1648 8.22248 13.2477 8.16188 13.3452 8.11781C13.4427 8.07373 13.5483 8.0517 13.662 8.0517C13.857 8.0517 14.0252 8.12096 14.1666 8.25947C14.3096 8.39642 14.3811 8.55934 14.3811 8.74822C14.3811 8.85841 14.3583 8.96072 14.3128 9.05517C14.2673 9.14961 14.2048 9.22989 14.1252 9.296L9.78884 13.4964C9.73197 13.5735 9.65803 13.6318 9.56703 13.6711C9.47441 13.7089 9.37691 13.7333 9.27453 13.7443Z" fill="#F1416C"/>
</svg>
