<svg width="25" height="20" viewBox="0 0 25 20" fill="none" xmlns="http://www.w3.org/2000/svg">
<path d="M13.7957 5.2405H11.3582C10.914 5.2405 10.5177 5.11999 10.1692 4.87897C9.81893 4.63796 9.56796 4.33184 9.4163 3.96064V3.94217L9.15088 3.27453C8.99741 2.89101 8.74282 2.58138 8.38713 2.34564C8.03324 2.11166 7.63963 1.98851 7.2063 1.9762H5.57046C5.05046 1.9762 4.56748 2.07471 4.1215 2.27175C3.6647 2.45823 3.26838 2.71509 2.93255 3.04231C2.59671 3.36953 2.3331 3.75569 2.14171 4.20078C1.93949 4.63532 1.83838 5.10592 1.83838 5.61259V13.6269C1.83838 13.6269 1.83838 13.6304 1.83838 13.6374C1.83838 13.6427 1.83838 13.6454 1.83838 13.6454C1.83838 14.2154 1.95213 14.7537 2.17963 15.2604C2.40893 15.767 2.71678 16.2095 3.10317 16.5877C3.49136 16.9642 3.94546 17.2642 4.46546 17.4876C4.98546 17.7093 5.53796 17.8201 6.12296 17.8201C6.12296 17.8201 6.12567 17.8201 6.13109 17.8201C6.13831 17.8201 6.14192 17.8201 6.14192 17.8201H13.7957C13.7957 17.8201 13.7993 17.8201 13.8065 17.8201C13.8119 17.8201 13.8146 17.8201 13.8146 17.8201C14.3996 17.8201 14.9521 17.7093 15.4721 17.4876C15.9921 17.2642 16.4462 16.9642 16.8344 16.5877C17.2208 16.2095 17.5287 15.767 17.758 15.2604C17.9855 14.7537 18.0992 14.2154 18.0992 13.6454C18.0992 13.6454 18.0992 13.6427 18.0992 13.6374C18.0992 13.6304 18.0992 13.6269 18.0992 13.6269V9.41522C18.0992 8.83467 17.9855 8.29018 17.758 7.78175C17.5287 7.27509 17.2208 6.83351 16.8344 6.45703C16.4462 6.07879 15.9921 5.77884 15.4721 5.55717C14.9521 5.34606 14.3933 5.2405 13.7957 5.2405ZM12.883 10.9563C12.8198 11.0179 12.7494 11.0672 12.6717 11.1041C12.5959 11.1411 12.5074 11.1595 12.4063 11.1595C12.3305 11.1595 12.2609 11.1472 12.1978 11.1226C12.1346 11.098 12.0705 11.0672 12.0055 11.0302H12.0244L10.7109 9.93509V13.8881C10.7109 14.0605 10.654 14.2022 10.5403 14.313C10.4265 14.4256 10.2803 14.4819 10.1015 14.4819C9.9372 14.4819 9.79456 14.4256 9.67359 14.313C9.55261 14.2022 9.49213 14.0605 9.49213 13.8881V9.89814L7.989 11.0302C7.93845 11.0795 7.87796 11.1199 7.80755 11.1516C7.73713 11.1815 7.65768 11.1965 7.56921 11.1965C7.40491 11.1965 7.26227 11.1375 7.14129 11.0197C7.02032 10.9036 6.95984 10.7646 6.95984 10.6027C6.95984 10.5042 6.98511 10.4118 7.03567 10.3256C7.08623 10.2394 7.15664 10.1708 7.24692 10.1198L9.15088 8.65522L9.70338 8.22772C9.76657 8.17846 9.83248 8.14152 9.90109 8.11689C9.9715 8.09226 10.0509 8.07995 10.1394 8.07995C10.2153 8.07995 10.292 8.09226 10.3696 8.11689C10.4455 8.14152 10.515 8.17846 10.5782 8.22772L12.845 10.1198C12.9082 10.1708 12.9588 10.2333 12.9967 10.3072C13.0346 10.3811 13.0536 10.4611 13.0536 10.5473C13.0536 10.6335 13.0373 10.7109 13.0048 10.7795C12.9741 10.8481 12.9335 10.9071 12.883 10.9563Z" fill="white"/>
<g opacity="0.3">
<path d="M9.03442 3.4408L9.30255 4.01607C9.45422 4.39959 9.7079 4.71186 10.0636 4.95288C10.4193 5.1939 10.8192 5.31441 11.2634 5.31441H13.7009C14.5007 5.32672 15.2311 5.53431 15.8919 5.93718C16.551 6.3383 17.0583 6.8608 17.414 7.50468L17.433 7.52316C17.3951 6.95492 17.2497 6.42274 16.9969 5.92663C16.755 5.41996 16.4336 4.98455 16.0328 4.62038C15.6337 4.25445 15.1679 3.96681 14.6353 3.75746C14.1135 3.54635 13.5546 3.4408 12.9588 3.4408H9.03442Z" fill="white"/>
</g>
</svg>
