<svg width="21" height="20" viewBox="0 0 21 20" fill="none" xmlns="http://www.w3.org/2000/svg">
<g opacity="0.3">
<path d="M13.8107 1.8934H16.1723C16.8061 1.8934 17.3486 2.10979 17.8 2.54257C18.2496 2.97535 18.4744 3.50664 18.4744 4.13646V6.4191C18.4744 7.03836 18.2496 7.56701 17.8 8.00507C17.3486 8.44488 16.8061 8.66479 16.1723 8.66479H13.8107C13.1751 8.66479 12.6325 8.44488 12.1829 8.00507C11.7316 7.56701 11.5059 7.03836 11.5059 6.4191V4.13646C11.5059 3.50664 11.7316 2.97535 12.1829 2.54257C12.6325 2.10979 13.1751 1.8934 13.8107 1.8934Z" fill="#FD4A36"/>
</g>
<g opacity="0.3">
<path d="M4.51497 10.929H6.87664C7.5122 10.929 8.05477 11.1489 8.50435 11.5887C8.95574 12.0267 9.18143 12.5554 9.18143 13.1746V15.4573C9.18143 16.0871 8.95574 16.6184 8.50435 17.0512C8.05477 17.484 7.5122 17.7003 6.87664 17.7003H4.51497C3.88122 17.7003 3.33865 17.484 2.88727 17.0512C2.43768 16.6184 2.21289 16.0871 2.21289 15.4573V13.1746C2.21289 12.5554 2.43768 12.0267 2.88727 11.5887C3.33865 11.1489 3.88122 10.929 4.51497 10.929Z" fill="#FD4A36"/>
</g>
<path d="M13.8107 10.9474H16.1723C16.8061 10.9474 17.3486 11.1673 17.8 11.6071C18.2496 12.0452 18.4744 12.5739 18.4744 13.1931V15.4942C18.4744 16.1117 18.2496 16.6404 17.8 17.0802C17.3486 17.5183 16.8061 17.7373 16.1723 17.7373H13.8107C13.1751 17.7373 12.6325 17.5183 12.1829 17.0802C11.7316 16.6404 11.5059 16.1117 11.5059 15.4942V13.1931C11.5059 12.5739 11.7316 12.0452 12.1829 11.6071C12.6325 11.1673 13.1751 10.9474 13.8107 10.9474Z" fill="#FD4A36"/>
<path d="M4.51497 1.85645H6.87664C7.5122 1.85645 8.05477 2.07547 8.50435 2.51353C8.95574 2.95334 9.18143 3.482 9.18143 4.0995V6.40061C9.18143 7.01987 8.95574 7.54853 8.50435 7.98658C8.05477 8.4264 7.5122 8.64631 6.87664 8.64631H4.51497C3.88122 8.64631 3.33865 8.4264 2.88727 7.98658C2.43768 7.54853 2.21289 7.01987 2.21289 6.40061V4.0995C2.21289 3.482 2.43768 2.95334 2.88727 2.51353C3.33865 2.07547 3.88122 1.85645 4.51497 1.85645Z" fill="#FD4A36"/>
</svg>
