<svg width="27" height="27" viewBox="0 0 27 27" fill="none" xmlns="http://www.w3.org/2000/svg">
<path d="M4.41353 16.6169L6.03854 13.8002C6.20705 13.5113 6.43937 13.2778 6.73548 13.0997C7.034 12.9215 7.3602 12.8325 7.71409 12.8325C8.07039 12.8325 8.39659 12.9215 8.6927 13.0997C8.98881 13.2778 9.2127 13.5113 9.36437 13.8002H9.38965L11.0146 16.6169L12.6396 19.4336C12.7239 19.5876 12.7925 19.7453 12.8455 19.9066C12.896 20.0655 12.9213 20.2388 12.9213 20.4266C12.9213 20.9514 12.7299 21.404 12.3471 21.7844C11.9668 22.1648 11.5142 22.355 10.9894 22.355C10.9894 22.355 10.9858 22.355 10.9785 22.355C10.9689 22.355 10.9641 22.355 10.9641 22.355H4.46409C3.93928 22.355 3.4915 22.1648 3.12076 21.7844C2.74761 21.404 2.56104 20.9514 2.56104 20.4266C2.56104 20.2388 2.5815 20.0655 2.62242 19.9066C2.66576 19.7453 2.72955 19.5876 2.81381 19.4336V19.4625L4.41353 16.6169Z" fill="#FD4A36"/>
<g opacity="0.3">
<path d="M8.19804 12.4027L12.2353 5.34301C12.4038 5.05653 12.6361 4.82422 12.9322 4.64607C13.2283 4.46792 13.5545 4.37885 13.9108 4.37885C14.2647 4.37885 14.5909 4.46792 14.8894 4.64607C15.1855 4.82422 15.4179 5.05653 15.5864 5.34301L19.6489 12.4027L23.7114 19.4625C23.7956 19.5973 23.8594 19.7453 23.9028 19.9066C23.9437 20.0655 23.9641 20.2388 23.9641 20.4266C23.9641 20.9514 23.7788 21.404 23.408 21.7844C23.0349 22.1648 22.5775 22.355 22.0358 22.355H5.78582C5.261 22.355 4.81202 22.1648 4.43887 21.7844C4.06572 21.404 3.87915 20.9514 3.87915 20.4266C3.87915 20.2388 3.90082 20.0655 3.94415 19.9066C3.98748 19.7453 4.05128 19.5876 4.13554 19.4336V19.4625L8.19804 12.4027Z" fill="#FD4A36"/>
</g>
</svg>
