<svg width="24" height="24" viewBox="0 0 24 24" fill="none" xmlns="http://www.w3.org/2000/svg">
<path d="M10.9199 10.7629L3.09961 7.75317C2.89107 7.66762 2.72044 7.53216 2.58773 7.34679C2.45503 7.15938 2.38867 6.9516 2.38867 6.72345C2.38867 6.49327 2.45503 6.28855 2.58773 6.10929C2.72044 5.93206 2.89107 5.79966 3.09961 5.71206L10.9199 2.7054C11.0674 2.64836 11.219 2.60558 11.3749 2.57706C11.5308 2.54855 11.6972 2.53429 11.8742 2.53429C12.0511 2.53429 12.2175 2.54855 12.3734 2.57706C12.5293 2.60558 12.6809 2.64836 12.8284 2.7054L20.6045 5.71206C20.8278 5.79966 21.0058 5.93206 21.1385 6.10929C21.2712 6.28855 21.3375 6.49327 21.3375 6.72345C21.3375 6.9516 21.2712 7.15938 21.1385 7.34679C21.0058 7.53216 20.8351 7.66762 20.6266 7.75317H20.6045L12.8284 10.7629C12.6809 10.8199 12.5293 10.8627 12.3734 10.8912C12.2175 10.9198 12.0511 10.934 11.8742 10.934C11.6972 10.934 11.5308 10.9198 11.3749 10.8912C11.219 10.8627 11.0674 10.8199 10.9199 10.7629Z" fill="#F1416C"/>
<g opacity="0.3">
<path d="M20.6487 17.6593L12.8284 20.6659C12.6809 20.723 12.5261 20.7698 12.3639 20.8065C12.1996 20.8411 12.029 20.8584 11.852 20.8584C11.6751 20.8584 11.5013 20.8411 11.3307 20.8065C11.1601 20.7698 11.001 20.723 10.8536 20.6659H10.8757L3.09961 17.6593C2.89107 17.5737 2.72044 17.4413 2.58773 17.2621C2.45503 17.0828 2.38867 16.8781 2.38867 16.6479C2.38867 16.4197 2.45503 16.212 2.58773 16.0246C2.72044 15.8392 2.89107 15.7037 3.09961 15.6182L4.29714 15.1446L10.1647 17.4209C10.4154 17.5228 10.6819 17.6022 10.9642 17.6593C11.2443 17.7163 11.5403 17.7448 11.852 17.7448C12.1491 17.7448 12.4419 17.7163 12.7304 17.6593C13.019 17.6022 13.296 17.5228 13.5615 17.4209H13.5393L19.4512 15.1446L20.6708 15.6182C20.8794 15.7037 21.05 15.8361 21.1827 16.0154C21.3154 16.1946 21.3818 16.3984 21.3818 16.6265C21.3818 16.8709 21.3123 17.0828 21.1732 17.2621C21.0321 17.4413 20.8573 17.5737 20.6487 17.6593ZM12.8284 15.7251L20.6045 12.694C20.813 12.6084 20.9836 12.476 21.1163 12.2968C21.2491 12.1196 21.3154 11.9159 21.3154 11.6857C21.3154 11.4575 21.2533 11.2538 21.129 11.0746C21.0026 10.8953 20.8351 10.7629 20.6266 10.6773H20.6045L12.8284 7.64622C12.6809 7.60345 12.5293 7.56372 12.3734 7.52706C12.2175 7.49243 12.0511 7.47511 11.8742 7.47511C11.6972 7.47511 11.5308 7.49243 11.3749 7.52706C11.219 7.56372 11.0674 7.61058 10.9199 7.66761V7.64622L3.09961 10.6773C2.89107 10.7629 2.7236 10.8953 2.59721 11.0746C2.47293 11.2538 2.41079 11.4575 2.41079 11.6857C2.41079 11.9159 2.47293 12.1196 2.59721 12.2968C2.7236 12.476 2.89107 12.6084 3.09961 12.694L10.9199 15.7251C11.0674 15.7679 11.219 15.8076 11.3749 15.8443C11.5308 15.8789 11.6972 15.8962 11.8742 15.8962C12.0511 15.8962 12.2175 15.8789 12.3734 15.8443C12.5293 15.8076 12.6809 15.7608 12.8284 15.7037V15.7251Z" fill="#F1416C"/>
</g>
</svg>
