<svg width="21" height="21" viewBox="0 0 21 21" fill="none" xmlns="http://www.w3.org/2000/svg">
<path d="M17.5471 6.71168C17.5598 6.74862 17.5688 6.78556 17.5742 6.82251C17.5815 6.85945 17.5851 6.90343 17.5851 6.95445C17.5851 7.12686 17.5183 7.27816 17.3846 7.40834C17.251 7.53853 17.0958 7.60362 16.9188 7.60362H3.91069C3.68319 7.60362 3.49 7.52621 3.33111 7.3714C3.17222 7.21658 3.09277 7.03362 3.09277 6.82251C3.09277 6.76093 3.09909 6.70904 3.11173 6.66681C3.12437 6.62283 3.13701 6.57621 3.14965 6.52695C3.40423 5.94464 3.76625 5.44325 4.23569 5.02279C4.70513 4.60232 5.245 4.29357 5.85527 4.09654L5.87423 4.07806V2.85362C5.87423 2.85362 5.87423 2.8501 5.87423 2.84306C5.87423 2.83779 5.87423 2.83515 5.87423 2.83515C5.87423 2.68561 5.9275 2.55806 6.03402 2.45251C6.14236 2.34871 6.27326 2.29681 6.42673 2.29681C6.59104 2.29681 6.72736 2.35223 6.83569 2.46306C6.94402 2.5739 6.99819 2.70408 6.99819 2.85362V3.8907C7.04875 3.8907 7.09298 3.8907 7.1309 3.8907C7.16882 3.8907 7.20673 3.8907 7.24465 3.8907H9.90965V2.85362C9.90965 2.70408 9.96382 2.5739 10.0721 2.46306C10.1805 2.35223 10.3105 2.29681 10.4621 2.29681C10.6283 2.29681 10.7646 2.35223 10.8711 2.46306C10.9794 2.5739 11.0336 2.70408 11.0336 2.85362V3.8907H13.3953C13.4332 3.8907 13.4747 3.8907 13.5199 3.8907C13.5632 3.8907 13.6038 3.8907 13.6417 3.8907V2.85362C13.6417 2.85362 13.6417 2.8501 13.6417 2.84306C13.6417 2.83779 13.6417 2.83515 13.6417 2.83515C13.6417 2.68561 13.6959 2.55806 13.8042 2.45251C13.9126 2.34871 14.0426 2.29681 14.1942 2.29681C14.3477 2.29681 14.4813 2.35223 14.5951 2.46306C14.7088 2.5739 14.7657 2.70408 14.7657 2.85362V4.07806C15.4139 4.29973 15.979 4.63927 16.4611 5.09668C16.9432 5.55584 17.2989 6.08802 17.5282 6.6932L17.5471 6.71168ZM7.6834 11.0157C7.50465 11.0157 7.34847 11.0808 7.21486 11.211C7.08305 11.3412 7.01715 11.4986 7.01715 11.6833C7.01715 11.8698 7.08305 12.0282 7.21486 12.1583C7.34847 12.2885 7.51097 12.3536 7.70236 12.3536C7.89194 12.3536 8.05354 12.2885 8.18715 12.1583C8.32076 12.0282 8.38757 11.8698 8.38757 11.6833C8.38757 11.4986 8.32076 11.3412 8.18715 11.211C8.05354 11.0808 7.88562 11.0157 7.6834 11.0157ZM10.2915 11.0157C10.1128 11.0157 9.9575 11.0808 9.82569 11.211C9.69208 11.3412 9.62527 11.4986 9.62527 11.6833C9.62527 11.8698 9.69208 12.0282 9.82569 12.1583C9.9575 12.2885 10.1191 12.3536 10.3105 12.3536C10.5001 12.3536 10.6617 12.2885 10.7953 12.1583C10.9289 12.0282 10.9957 11.8698 10.9957 11.6833C10.9957 11.4986 10.9289 11.3412 10.7953 11.211C10.6617 11.0808 10.4937 11.0157 10.2915 11.0157ZM12.9376 11.0157C12.748 11.0157 12.5828 11.0808 12.4419 11.211C12.3029 11.3412 12.2334 11.4986 12.2334 11.6833C12.2334 11.8698 12.3029 12.0282 12.4419 12.1583C12.5828 12.2885 12.748 12.3536 12.9376 12.3536C13.129 12.3536 13.2915 12.2885 13.4251 12.1583C13.5569 12.0282 13.6228 11.8698 13.6228 11.6833C13.6228 11.4986 13.5569 11.3412 13.4251 11.211C13.2915 11.0808 13.129 11.0157 12.9376 11.0157ZM7.6834 13.5411C7.49201 13.5411 7.32951 13.6089 7.1959 13.7443C7.06409 13.8798 6.99819 14.0346 6.99819 14.2088C6.99819 14.3935 7.06409 14.5545 7.1959 14.6917C7.32951 14.8271 7.49201 14.8949 7.6834 14.8949C7.88562 14.8949 8.05354 14.8271 8.18715 14.6917C8.32076 14.5545 8.38757 14.3935 8.38757 14.2088C8.38757 14.0223 8.32076 13.8639 8.18715 13.7338C8.05354 13.6053 7.88562 13.5411 7.6834 13.5411ZM10.2915 13.5411C10.1001 13.5411 9.93854 13.6089 9.80673 13.7443C9.67312 13.8798 9.60632 14.0346 9.60632 14.2088C9.60632 14.3935 9.67312 14.5545 9.80673 14.6917C9.93854 14.8271 10.1001 14.8949 10.2915 14.8949C10.4811 14.8949 10.6463 14.8271 10.7871 14.6917C10.9262 14.5545 10.9957 14.3935 10.9957 14.2088C10.9957 14.0223 10.9262 13.8639 10.7871 13.7338C10.6463 13.6053 10.4811 13.5411 10.2915 13.5411ZM12.9186 13.5411C12.729 13.5534 12.5674 13.6238 12.4338 13.7522C12.3002 13.8824 12.2334 14.0346 12.2334 14.2088C12.2334 14.3935 12.3029 14.5545 12.4419 14.6917C12.5828 14.8271 12.748 14.8949 12.9376 14.8949C13.129 14.8949 13.2915 14.8271 13.4251 14.6917C13.5569 14.5545 13.6228 14.3935 13.6228 14.2088C13.6228 14.0223 13.5533 13.8639 13.4142 13.7338C13.2752 13.6053 13.11 13.5411 12.9186 13.5411Z" fill="#FD4A36"/>
<g opacity="0.3">
<path d="M2.86523 9.34791V13.8367C2.86523 14.4313 2.9853 14.9881 3.22544 15.5071C3.45475 16.0384 3.76892 16.4958 4.16794 16.8793C4.56878 17.2628 5.03551 17.5663 5.56815 17.7897C6.10079 18.0237 6.67225 18.1407 7.28253 18.1407H13.4142C14.0245 18.1407 14.5959 18.0237 15.1286 17.7897C15.6612 17.5663 16.1279 17.2628 16.5288 16.8793C16.9278 16.4958 17.242 16.0384 17.4713 15.5071C17.7114 14.9881 17.8315 14.4313 17.8315 13.8367V9.34791C17.8315 9.16143 17.7647 9.00662 17.6311 8.88347C17.4993 8.75856 17.344 8.69611 17.1652 8.69611H3.53148C3.35273 8.69611 3.19746 8.75856 3.06565 8.88347C2.93204 9.00662 2.86523 9.16143 2.86523 9.34791Z" fill="#FD4A36"/>
</g>
</svg>
