<svg width="24" height="24" viewBox="0 0 24 24" fill="none" xmlns="http://www.w3.org/2000/svg">
<path d="M10.9199 10.3428L3.09961 7.33312C2.89107 7.24756 2.72044 7.1121 2.58773 6.92673C2.45503 6.73932 2.38867 6.53154 2.38867 6.30339C2.38867 6.07321 2.45503 5.86849 2.58773 5.68923C2.72044 5.51201 2.89107 5.3796 3.09961 5.29201L10.9199 2.28534C11.0674 2.2283 11.219 2.18552 11.3749 2.15701C11.5308 2.12849 11.6972 2.11423 11.8742 2.11423C12.0511 2.11423 12.2175 2.12849 12.3734 2.15701C12.5293 2.18552 12.6809 2.2283 12.8284 2.28534L20.6045 5.29201C20.8278 5.3796 21.0058 5.51201 21.1385 5.68923C21.2712 5.86849 21.3375 6.07321 21.3375 6.30339C21.3375 6.53154 21.2712 6.73932 21.1385 6.92673C21.0058 7.1121 20.8351 7.24756 20.6266 7.33312H20.6045L12.8284 10.3428C12.6809 10.3999 12.5293 10.4427 12.3734 10.4712C12.2175 10.4997 12.0511 10.514 11.8742 10.514C11.6972 10.514 11.5308 10.4997 11.3749 10.4712C11.219 10.4427 11.0674 10.3999 10.9199 10.3428Z" fill="#FFC700"/>
<g opacity="0.3">
<path d="M20.6487 17.2393L12.8284 20.2459C12.6809 20.303 12.5261 20.3498 12.3639 20.3865C12.1996 20.4211 12.029 20.4384 11.852 20.4384C11.6751 20.4384 11.5013 20.4211 11.3307 20.3865C11.1601 20.3498 11.001 20.303 10.8536 20.2459H10.8757L3.09961 17.2393C2.89107 17.1537 2.72044 17.0213 2.58773 16.842C2.45503 16.6628 2.38867 16.458 2.38867 16.2279C2.38867 15.9997 2.45503 15.7919 2.58773 15.6045C2.72044 15.4192 2.89107 15.2837 3.09961 15.1981L4.29714 14.7245L10.1647 17.0009C10.4154 17.1028 10.6819 17.1822 10.9642 17.2393C11.2443 17.2963 11.5403 17.3248 11.852 17.3248C12.1491 17.3248 12.4419 17.2963 12.7304 17.2393C13.019 17.1822 13.296 17.1028 13.5615 17.0009H13.5393L19.4512 14.7245L20.6708 15.1981C20.8794 15.2837 21.05 15.4161 21.1827 15.5954C21.3154 15.7746 21.3818 15.9783 21.3818 16.2065C21.3818 16.4509 21.3123 16.6628 21.1732 16.842C21.0321 17.0213 20.8573 17.1537 20.6487 17.2393ZM12.8284 15.3051L20.6045 12.274C20.813 12.1884 20.9836 12.056 21.1163 11.8768C21.2491 11.6995 21.3154 11.4958 21.3154 11.2656C21.3154 11.0375 21.2533 10.8338 21.129 10.6545C21.0026 10.4753 20.8351 10.3429 20.6266 10.2573H20.6045L12.8284 7.2262C12.6809 7.18342 12.5293 7.1437 12.3734 7.10703C12.2175 7.0724 12.0511 7.05508 11.8742 7.05508C11.6972 7.05508 11.5308 7.0724 11.3749 7.10703C11.219 7.1437 11.0674 7.19055 10.9199 7.24758V7.2262L3.09961 10.2573C2.89107 10.3429 2.7236 10.4753 2.59721 10.6545C2.47293 10.8338 2.41079 11.0375 2.41079 11.2656C2.41079 11.4958 2.47293 11.6995 2.59721 11.8768C2.7236 12.056 2.89107 12.1884 3.09961 12.274L10.9199 15.3051C11.0674 15.3479 11.219 15.3876 11.3749 15.4243C11.5308 15.4589 11.6972 15.4762 11.8742 15.4762C12.0511 15.4762 12.2175 15.4589 12.3734 15.4243C12.5293 15.3876 12.6809 15.3407 12.8284 15.2837V15.3051Z" fill="#FFC700"/>
</g>
</svg>
