<svg width="24" height="24" viewBox="0 0 24 24" fill="none" xmlns="http://www.w3.org/2000/svg">
<path d="M10.9199 11.0529L3.09961 8.04314C2.89107 7.95758 2.72044 7.82212 2.58773 7.63675C2.45503 7.44934 2.38867 7.24156 2.38867 7.01342C2.38867 6.78323 2.45503 6.57851 2.58773 6.39925C2.72044 6.22203 2.89107 6.08962 3.09961 6.00203L10.9199 2.99536C11.0674 2.93832 11.219 2.89555 11.3749 2.86703C11.5308 2.83851 11.6972 2.82425 11.8742 2.82425C12.0511 2.82425 12.2175 2.83851 12.3734 2.86703C12.5293 2.89555 12.6809 2.93832 12.8284 2.99536L20.6045 6.00203C20.8278 6.08962 21.0058 6.22203 21.1385 6.39925C21.2712 6.57851 21.3375 6.78323 21.3375 7.01342C21.3375 7.24156 21.2712 7.44934 21.1385 7.63675C21.0058 7.82212 20.8351 7.95758 20.6266 8.04314H20.6045L12.8284 11.0529C12.6809 11.1099 12.5293 11.1527 12.3734 11.1812C12.2175 11.2097 12.0511 11.224 11.8742 11.224C11.6972 11.224 11.5308 11.2097 11.3749 11.1812C11.219 11.1527 11.0674 11.1099 10.9199 11.0529Z" fill="#50CD89"/>
<g opacity="0.3">
<path d="M20.6487 17.9493L12.8284 20.9559C12.6809 21.013 12.5261 21.0598 12.3639 21.0965C12.1996 21.1311 12.029 21.1484 11.852 21.1484C11.6751 21.1484 11.5013 21.1311 11.3307 21.0965C11.1601 21.0598 11.001 21.013 10.8536 20.9559H10.8757L3.09961 17.9493C2.89107 17.8637 2.72044 17.7313 2.58773 17.5521C2.45503 17.3728 2.38867 17.1681 2.38867 16.9379C2.38867 16.7097 2.45503 16.502 2.58773 16.3146C2.72044 16.1292 2.89107 15.9937 3.09961 15.9082L4.29714 15.4346L10.1647 17.7109C10.4154 17.8128 10.6819 17.8922 10.9642 17.9493C11.2443 18.0063 11.5403 18.0348 11.852 18.0348C12.1491 18.0348 12.4419 18.0063 12.7304 17.9493C13.019 17.8922 13.296 17.8128 13.5615 17.7109H13.5393L19.4512 15.4346L20.6708 15.9082C20.8794 15.9937 21.05 16.1261 21.1827 16.3054C21.3154 16.4846 21.3818 16.6883 21.3818 16.9165C21.3818 17.1609 21.3123 17.3728 21.1732 17.5521C21.0321 17.7313 20.8573 17.8637 20.6487 17.9493ZM12.8284 16.0151L20.6045 12.984C20.813 12.8984 20.9836 12.766 21.1163 12.5868C21.2491 12.4096 21.3154 12.2058 21.3154 11.9757C21.3154 11.7475 21.2533 11.5438 21.129 11.3646C21.0026 11.1853 20.8351 11.0529 20.6266 10.9673H20.6045L12.8284 7.93622C12.6809 7.89344 12.5293 7.85372 12.3734 7.81705C12.2175 7.78242 12.0511 7.76511 11.8742 7.76511C11.6972 7.76511 11.5308 7.78242 11.3749 7.81705C11.219 7.85372 11.0674 7.90057 10.9199 7.95761V7.93622L3.09961 10.9673C2.89107 11.0529 2.7236 11.1853 2.59721 11.3646C2.47293 11.5438 2.41079 11.7475 2.41079 11.9757C2.41079 12.2058 2.47293 12.4096 2.59721 12.5868C2.7236 12.766 2.89107 12.8984 3.09961 12.984L10.9199 16.0151C11.0674 16.0579 11.219 16.0976 11.3749 16.1343C11.5308 16.1689 11.6972 16.1862 11.8742 16.1862C12.0511 16.1862 12.2175 16.1689 12.3734 16.1343C12.5293 16.0976 12.6809 16.0508 12.8284 15.9937V16.0151Z" fill="#50CD89"/>
</g>
</svg>
