<svg width="24" height="24" viewBox="0 0 24 24" fill="none" xmlns="http://www.w3.org/2000/svg">
<path d="M10.9199 10.4729L3.09961 7.46319C2.89107 7.37763 2.72044 7.24217 2.58773 7.0568C2.45503 6.86939 2.38867 6.66162 2.38867 6.43347C2.38867 6.20328 2.45503 5.99856 2.58773 5.8193C2.72044 5.64208 2.89107 5.50967 3.09961 5.42208L10.9199 2.41541C11.0674 2.35837 11.219 2.3156 11.3749 2.28708C11.5308 2.25856 11.6972 2.2443 11.8742 2.2443C12.0511 2.2443 12.2175 2.25856 12.3734 2.28708C12.5293 2.3156 12.6809 2.35837 12.8284 2.41541L20.6045 5.42208C20.8278 5.50967 21.0058 5.64208 21.1385 5.8193C21.2712 5.99856 21.3375 6.20328 21.3375 6.43347C21.3375 6.66162 21.2712 6.86939 21.1385 7.0568C21.0058 7.24217 20.8351 7.37763 20.6266 7.46319H20.6045L12.8284 10.4729C12.6809 10.5299 12.5293 10.5727 12.3734 10.6012C12.2175 10.6298 12.0511 10.644 11.8742 10.644C11.6972 10.644 11.5308 10.6298 11.3749 10.6012C11.219 10.5727 11.0674 10.5299 10.9199 10.4729Z" fill="#7239EA"/>
<g opacity="0.3">
<path d="M20.6487 17.3693L12.8284 20.376C12.6809 20.433 12.5261 20.4799 12.3639 20.5165C12.1996 20.5512 12.029 20.5685 11.852 20.5685C11.6751 20.5685 11.5013 20.5512 11.3307 20.5165C11.1601 20.4799 11.001 20.433 10.8536 20.376H10.8757L3.09961 17.3693C2.89107 17.2837 2.72044 17.1513 2.58773 16.9721C2.45503 16.7928 2.38867 16.5881 2.38867 16.3579C2.38867 16.1298 2.45503 15.922 2.58773 15.7346C2.72044 15.5492 2.89107 15.4137 3.09961 15.3282L4.29714 14.8546L10.1647 17.131C10.4154 17.2328 10.6819 17.3123 10.9642 17.3693C11.2443 17.4263 11.5403 17.4549 11.852 17.4549C12.1491 17.4549 12.4419 17.4263 12.7304 17.3693C13.019 17.3123 13.296 17.2328 13.5615 17.131H13.5393L19.4512 14.8546L20.6708 15.3282C20.8794 15.4137 21.05 15.5462 21.1827 15.7254C21.3154 15.9047 21.3818 16.1084 21.3818 16.3365C21.3818 16.581 21.3123 16.7928 21.1732 16.9721C21.0321 17.1513 20.8573 17.2837 20.6487 17.3693ZM12.8284 15.4351L20.6045 12.404C20.813 12.3185 20.9836 12.1861 21.1163 12.0068C21.2491 11.8296 21.3154 11.6259 21.3154 11.3957C21.3154 11.1675 21.2533 10.9638 21.129 10.7846C21.0026 10.6053 20.8351 10.4729 20.6266 10.3874H20.6045L12.8284 7.35625C12.6809 7.31347 12.5293 7.27375 12.3734 7.23708C12.2175 7.20245 12.0511 7.18513 11.8742 7.18513C11.6972 7.18513 11.5308 7.20245 11.3749 7.23708C11.219 7.27375 11.0674 7.3206 10.9199 7.37764V7.35625L3.09961 10.3874C2.89107 10.4729 2.7236 10.6053 2.59721 10.7846C2.47293 10.9638 2.41079 11.1675 2.41079 11.3957C2.41079 11.6259 2.47293 11.8296 2.59721 12.0068C2.7236 12.1861 2.89107 12.3185 3.09961 12.404L10.9199 15.4351C11.0674 15.4779 11.219 15.5176 11.3749 15.5543C11.5308 15.5889 11.6972 15.6062 11.8742 15.6062C12.0511 15.6062 12.2175 15.5889 12.3734 15.5543C12.5293 15.5176 12.6809 15.4708 12.8284 15.4137V15.4351Z" fill="#7239EA"/>
</g>
</svg>
