<svg width="27" height="27" viewBox="0 0 27 27" fill="none" xmlns="http://www.w3.org/2000/svg">
<path d="M12.6887 5.60098L12.3096 4.68737C12.1049 4.16256 11.7655 3.73885 11.2912 3.41626C10.8194 3.09608 10.2946 2.92756 9.71679 2.91071H7.53568C6.84235 2.91071 6.19837 3.04552 5.60374 3.31515C4.99466 3.57034 4.46624 3.92182 4.01846 4.36959C3.57068 4.81737 3.2192 5.3458 2.96401 5.95487C2.69439 6.5495 2.55957 7.19348 2.55957 7.88682V18.8538C2.55957 18.8538 2.55957 18.8586 2.55957 18.8682C2.55957 18.8754 2.55957 18.879 2.55957 18.879C2.55957 19.659 2.71124 20.3957 3.01457 21.089C3.32031 21.7824 3.73077 22.3878 4.24596 22.9054C4.76355 23.4206 5.36901 23.8311 6.06235 24.1368C6.75568 24.4402 7.49235 24.5918 8.27235 24.5918C8.27235 24.5918 8.27596 24.5918 8.28318 24.5918C8.29281 24.5918 8.29763 24.5918 8.29763 24.5918H18.5026C18.5026 24.5918 18.5074 24.5918 18.5171 24.5918C18.5243 24.5918 18.5279 24.5918 18.5279 24.5918C19.3079 24.5918 20.0446 24.4402 20.7379 24.1368C21.4312 23.8311 22.0367 23.4206 22.5543 22.9054C23.0695 22.3878 23.4799 21.7824 23.7857 21.089C24.089 20.3957 24.2407 19.659 24.2407 18.879C24.2407 18.879 24.2407 18.8754 24.2407 18.8682C24.2407 18.8586 24.2407 18.8538 24.2407 18.8538V13.0904C24.2407 12.296 24.089 11.5509 23.7857 10.8551C23.4799 10.1618 23.0695 9.55756 22.5543 9.04237C22.0367 8.52478 21.4312 8.11432 20.7379 7.81098C20.0446 7.52209 19.2995 7.37765 18.5026 7.37765H15.2526C14.6773 7.3608 14.1609 7.19228 13.7035 6.87209C13.2485 6.5495 12.9186 6.13422 12.714 5.62626L12.6887 5.60098Z" fill="#FD4A36"/>
<g opacity="0.3">
<path d="M12.3096 4.73798L12.6887 5.60103C12.9102 6.12585 13.2533 6.55316 13.7179 6.88298C14.1825 7.21279 14.711 7.3777 15.3032 7.3777H18.5532C19.6365 7.3777 20.6187 7.64853 21.4998 8.1902C22.381 8.73186 23.0671 9.43483 23.5582 10.2991L23.5835 10.3496C23.5305 9.55279 23.3355 8.81612 22.9985 8.13964C22.6759 7.46316 22.2486 6.87455 21.7165 6.37381C21.1821 5.87548 20.5598 5.48187 19.8496 5.19298C19.1562 4.90649 18.4111 4.75483 17.6143 4.73798H12.3096Z" fill="#FD4A36"/>
</g>
</svg>
