<svg width="19" height="18" viewBox="0 0 19 18" fill="none" xmlns="http://www.w3.org/2000/svg">
<path d="M8.24591 12.3182C8.14353 12.3182 8.04928 12.3016 7.96316 12.2686C7.87703 12.234 7.79984 12.1836 7.73159 12.1175L4.37272 8.83081C4.30447 8.77572 4.25328 8.7041 4.21916 8.61595C4.18503 8.52623 4.16797 8.43178 4.16797 8.33262C4.16797 8.13428 4.23947 7.96586 4.38247 7.82734C4.52384 7.68882 4.69203 7.61956 4.88703 7.61956C4.98941 7.61956 5.08691 7.63845 5.17953 7.67623C5.27053 7.71558 5.35016 7.76831 5.41841 7.83442L8.24591 10.5898L13.1307 5.86053C13.1989 5.79285 13.2761 5.74012 13.3622 5.70234C13.4483 5.66299 13.5426 5.64331 13.645 5.64331C13.8513 5.64331 14.0252 5.71257 14.1666 5.85109C14.3096 5.98961 14.3811 6.15803 14.3811 6.35637C14.3811 6.45711 14.3616 6.55155 14.3226 6.6397C14.282 6.72785 14.2275 6.79947 14.1593 6.85456L8.77728 12.0844C8.70903 12.1505 8.62941 12.2064 8.53841 12.2521C8.44578 12.2961 8.34828 12.3182 8.24591 12.3182Z" fill="#50CD89"/>
</svg>
